<svg xmlns="http://www.w3.org/2000/svg" height="2048" preserveAspectRatio="none" style="display: block;" version="1.1" viewBox="0 0 2048 2048" width="2048">
<defs>
	<linearGradient gradientUnits="userSpaceOnUse" id="Gradient1" x1="1661.48" x2="1343.96" y1="1357.6" y2="1143.39">
		<stop class="stop0" offset="0" stop-color="rgb(90,60,219)" stop-opacity="1"></stop>
		<stop class="stop1" offset="1" stop-color="rgb(11,3,242)" stop-opacity="1"></stop>
	</linearGradient>
	<linearGradient gradientUnits="userSpaceOnUse" id="Gradient2" x1="1271.62" x2="1630.04" y1="749.173" y2="673.701">
		<stop class="stop0" offset="0" stop-color="rgb(236,80,125)" stop-opacity="1"></stop>
		<stop class="stop1" offset="1" stop-color="rgb(162,110,184)" stop-opacity="1"></stop>
	</linearGradient>
	<linearGradient gradientUnits="userSpaceOnUse" id="Gradient3" x1="1309.65" x2="1654.32" y1="930.588" y2="840.12">
		<stop class="stop0" offset="0" stop-color="rgb(241,73,118)" stop-opacity="1"></stop>
		<stop class="stop1" offset="1" stop-color="rgb(180,111,171)" stop-opacity="1"></stop>
	</linearGradient>
	<linearGradient gradientUnits="userSpaceOnUse" id="Gradient4" x1="399.056" x2="583.084" y1="879.02" y2="864.031">
		<stop class="stop0" offset="0" stop-color="rgb(254,204,56)" stop-opacity="1"></stop>
		<stop class="stop1" offset="1" stop-color="rgb(248,157,91)" stop-opacity="1"></stop>
	</linearGradient>
	<linearGradient gradientUnits="userSpaceOnUse" id="Gradient5" x1="401.514" x2="697.204" y1="665.173" y2="674.578">
		<stop class="stop0" offset="0" stop-color="rgb(254,220,54)" stop-opacity="1"></stop>
		<stop class="stop1" offset="1" stop-color="rgb(246,79,118)" stop-opacity="1"></stop>
	</linearGradient>
	<linearGradient gradientUnits="userSpaceOnUse" id="Gradient6" x1="393.67" x2="672.456" y1="1095.43" y2="1051.3">
		<stop class="stop0" offset="0" stop-color="rgb(254,214,53)" stop-opacity="1"></stop>
		<stop class="stop1" offset="1" stop-color="rgb(248,138,98)" stop-opacity="1"></stop>
	</linearGradient>
	<linearGradient gradientUnits="userSpaceOnUse" id="Gradient7" x1="398.49" x2="636.99" y1="1306.2" y2="1283.18">
		<stop class="stop0" offset="0" stop-color="rgb(255,216,48)" stop-opacity="1"></stop>
		<stop class="stop1" offset="1" stop-color="rgb(249,154,86)" stop-opacity="1"></stop>
	</linearGradient>
	<linearGradient gradientUnits="userSpaceOnUse" id="Gradient8" x1="402.358" x2="784.658" y1="375.862" y2="728.865">
		<stop class="stop0" offset="0" stop-color="rgb(255,248,18)" stop-opacity="1"></stop>
		<stop class="stop1" offset="1" stop-color="rgb(39,20,247)" stop-opacity="1"></stop>
	</linearGradient>
</defs>
<path d="M 0 0 L 2048 0 L 2048 2048 L 0 2048 L 0 0 z" fill="rgb(255,255,255)" transform="translate(0,0)"></path>
<path d="M 918.567 685.429 C 952.03 683.925 989.813 685.498 1023.84 686.019 C 1072.94 686.771 1131.05 679.236 1177.66 694.438 C 1214.69 706.517 1248.57 739.358 1265.76 774.229 C 1296.35 836.309 1268.23 936.269 1248.47 999.049 C 1224.25 1076.03 1190.88 1131.98 1115.58 1169.1 C 1037.15 1203.1 946.633 1193.74 881.123 1136.82 C 863.503 1121.41 848.41 1103.33 836.394 1083.24 C 798.558 1020.43 776.12 924.288 769.829 851.5 C 762.061 761.624 829.433 690.948 918.567 685.429 z" fill="rgb(247,67,27)" transform="translate(0,0)"></path>
<path d="M 919.474 755.462 C 970.182 757.254 1022.21 754.554 1072.63 755.35 C 1118.12 756.068 1163.31 747.369 1193.7 789.136 C 1218.38 823.066 1205.79 866.491 1200.88 904.689 C 1197.88 922.491 1193.77 940.048 1188.8 957.364 C 1172.85 1012.92 1154.89 1059.53 1106.24 1093.82 C 1031.16 1141.25 936.734 1119.46 893.045 1040.99 C 860.61 982.737 847.596 915.741 840.574 850.069 C 834.98 797.754 866.717 758.858 919.474 755.462 z" fill="rgb(255,255,255)" transform="translate(0,0)"></path>
<path d="M 1020.65 233.36 C 1061.14 232.757 1086.89 259.791 1092.9 298.301 C 1183.8 326.542 1213.71 386.022 1217.14 477.647 C 1219.81 548.693 1218.89 595.574 1149.16 632.762 C 1108.91 654.227 1076.46 662.755 1030.69 664.3 C 967.013 664.463 869.841 641.23 842.051 574.501 C 834.9 555.352 832.539 534.947 831.54 514.869 C 826.431 412.284 849.759 336.324 952.635 298.105 C 958.033 258.742 981.391 237.456 1020.65 233.36 z" fill="rgb(247,67,27)" transform="translate(0,0)"></path>
<path d="M 1112.5 533.086 C 1116.96 534.033 1119.01 535.538 1121.69 539.03 C 1124.89 553.034 1087.58 565.184 1077.55 568.278 C 1028.41 583.433 981.146 576.163 935.839 552.929 C 933.959 552.004 928.94 549.284 928.486 547.243 C 922.877 522.002 956.859 541.415 962.609 543.92 C 1000.15 560.282 1040.48 561.468 1078.87 547.116 C 1090.07 542.93 1100.47 537.495 1111.38 533.488 L 1112.5 533.086 z" fill="rgb(255,255,255)" transform="translate(0,0)"></path>
<path d="M 945.886 415.205 C 957.205 414.77 965.081 416.206 976.362 422.421 C 990.981 430.475 1005.29 455.919 996.557 472.343 C 990.158 480.098 980.524 475.178 980.326 466.015 C 979.942 448.214 972.388 439.54 956.837 435.065 C 939.536 434.08 921.733 443.83 922.155 461.503 C 922.538 477.485 909.821 482.838 903.878 469.007 C 898.88 457.378 912.424 431.329 922.842 424.781 C 931.185 419.537 935.032 417.316 945.886 415.205 z" fill="rgb(255,255,255)" transform="translate(0,0)"></path>
<path d="M 1090.93 415.237 C 1103.24 414.218 1114.22 416.968 1124.41 424.196 C 1135.39 431.884 1142.73 443.743 1144.72 457 C 1148.38 480.915 1128.4 480.851 1126.85 467.002 C 1124.71 447.919 1122.54 441.154 1103.06 435.131 C 1057.77 433.048 1074.8 471.723 1060.68 475.478 C 1058.29 476.091 1055.75 475.71 1053.64 474.42 C 1050.06 472.27 1049.06 468.461 1049.1 464.504 C 1049.35 437.86 1065.94 420.926 1090.93 415.237 z" fill="rgb(255,255,255)" transform="translate(0,0)"></path>
<path d="M 467.497 492.395 C 448.899 478.675 463.454 475.814 466.713 468.497 C 454.93 457.855 457.292 454.552 468.25 445.731 L 466.944 443.937 C 452.935 439.569 458.132 430.203 466.233 422.835 C 466.825 420.568 467.146 419.491 465.256 417.011 C 452.444 400.197 437.008 396.451 417.274 394.522 C 414.085 394.2 406.008 390.919 404.86 387.442 C 393.792 353.912 452.519 369.412 463.693 374.362 C 486.113 384.293 499.498 399.919 508.009 420.988 C 537.871 423.164 575.788 429.297 603.631 440.803 C 626.988 449.005 640.036 455.963 661.34 467.834 C 702.6 491.458 731.538 521.106 760.73 558.013 C 767.415 566.465 778.154 579.897 783.669 588.863 C 789.744 595.748 817.926 636.35 822.642 644.937 C 825.636 647.383 842.951 674.893 845.828 679.614 C 828.867 689.866 818.537 696.953 803.472 709.63 C 798.719 714.822 793.898 719.952 789.011 725.018 C 765.475 692.072 745.213 663.953 720.408 631.829 C 684.642 585.19 664.129 564.411 616.857 530.758 C 589.135 515.052 578.126 508.708 546.806 500.847 C 532.102 498.514 521.709 496.153 506.598 494.834 C 493.759 522.828 462.85 542.955 432.047 542.42 C 429.176 542.968 423.24 541.773 420.721 542.361 C 411.999 544.398 402.023 535.678 403.215 526.798 C 405.191 512.079 431.368 515.32 441.848 511.785 C 451.285 508.601 460.046 499.679 467.497 492.395 z" fill="url(#Gradient8)" transform="translate(0,0)"></path>
<path d="M 803.472 709.63 C 803.336 708.966 803.326 707.625 802.283 707.908 L 802.128 708.26 C 801.565 708.254 800.697 707.495 800.456 706.943 C 799.221 704.107 798.444 702.784 798.931 699.73 C 798.998 699.311 798.718 697.961 798.993 697.476 C 799.867 694.251 799.319 690.809 799.672 687.488 C 799.883 685.49 799.448 682.425 799.986 680.463 C 801.218 675.961 799.644 671.5 801.367 666.999 C 801.473 665.466 802.654 663.066 802.467 661.496 C 802.15 658.837 803.059 656.968 803.393 654.483 C 803.671 652.416 803.615 650.321 804.692 648.363 C 805.254 647.341 807.561 647.467 808.43 647.053 C 810.837 646.056 813.038 641.851 815.487 641.468 C 817.338 641.178 820.66 643.993 822.642 644.937 C 825.636 647.383 842.951 674.893 845.828 679.614 C 828.867 689.866 818.537 696.953 803.472 709.63 z" fill="rgb(14,5,239)" transform="translate(0,0)"></path>
<path d="M 1619.95 367.407 C 1629.68 366.788 1642.45 366.603 1645.11 378.416 C 1646.06 382.506 1645.18 386.806 1642.69 390.19 C 1637.78 396.843 1622.07 395.989 1613.78 397.063 C 1597.01 399.235 1588.15 409.37 1578.37 422.027 C 1584.5 424.412 1588.85 426.584 1590.11 433.478 C 1588.79 440.66 1585.28 441.459 1579.87 445.808 C 1588.82 454.284 1591.27 458.114 1580.78 466.962 L 1579.67 467.881 L 1579.8 468.752 C 1584.88 471.647 1586.88 472.242 1588.71 477.485 C 1588.21 483.669 1585.14 487.411 1581.01 491.736 C 1586.19 497.798 1598.54 509.391 1606.29 511.949 C 1619.37 516.021 1635.86 512.921 1645.98 523.871 C 1650.92 529.22 1644.26 538.619 1639.5 541.137 C 1629.72 546.315 1609.61 543.822 1599.31 541.158 C 1572.65 534.261 1554.01 517.915 1540.16 494.611 C 1535.12 494.921 1530.09 495.44 1525.09 496.165 C 1420.79 511.655 1362.28 582.417 1303.59 661.424 C 1288.03 684.153 1275.51 702.152 1260.68 725.887 C 1243.88 705.832 1223.89 692.481 1201.46 679.799 C 1289.85 544.692 1366.78 437.604 1538.91 420.484 C 1542.91 411.494 1548.26 403.175 1554.79 395.818 C 1572.84 375.849 1593.79 368.8 1619.95 367.407 z" fill="rgb(14,5,239)" transform="translate(0,0)"></path>
<path d="M 785.505 1022.6 C 796.551 1053.78 806.483 1079.19 825.86 1106.86 C 795.4 1154.43 743.287 1243.11 695.996 1274.37 C 653.922 1313.5 565.792 1336.77 508.077 1338.41 C 505.985 1344.25 503.149 1349.79 499.639 1354.89 C 486.512 1374.51 466.132 1388.11 442.98 1392.7 C 432.504 1394.7 405.175 1398.6 403.872 1382.74 C 402.022 1360.22 430.869 1368.53 443.923 1361.46 C 455.307 1355.3 461.308 1347.91 469.308 1338.04 C 452.093 1330.96 458.529 1324.19 466.737 1314.48 C 449.504 1298.21 466.407 1297.29 467.913 1290.93 C 457.989 1283.26 455.827 1276.37 466.742 1267.65 C 449.06 1243.51 440.87 1246.56 414.605 1241.57 C 410.323 1240.75 406.808 1238.48 404.761 1234.43 C 403.065 1231.02 402.807 1227.08 404.046 1223.48 C 409.514 1207.81 444.781 1215.38 456.599 1219.49 C 479.377 1227.41 496.136 1242.45 506.723 1264.06 C 567.356 1262.55 614.931 1241.03 661.863 1204.28 C 711.958 1157.14 752.651 1083.31 785.505 1022.6 z" fill="rgb(246,58,108)" transform="translate(0,0)"></path>
<path d="M 661.863 1204.28 C 656.09 1216.16 626.59 1232.16 614.286 1239.37 C 614.984 1242.05 617.962 1253.87 619.235 1254.94 C 628.554 1262.81 635.333 1298.93 641.41 1305.04 C 655.203 1301.67 688.941 1275.76 695.996 1274.37 C 653.922 1313.5 565.792 1336.77 508.077 1338.41 C 505.985 1344.25 503.149 1349.79 499.639 1354.89 C 486.512 1374.51 466.132 1388.11 442.98 1392.7 C 432.504 1394.7 405.175 1398.6 403.872 1382.74 C 402.022 1360.22 430.869 1368.53 443.923 1361.46 C 455.307 1355.3 461.308 1347.91 469.308 1338.04 C 452.093 1330.96 458.529 1324.19 466.737 1314.48 C 449.504 1298.21 466.407 1297.29 467.913 1290.93 C 457.989 1283.26 455.827 1276.37 466.742 1267.65 C 449.06 1243.51 440.87 1246.56 414.605 1241.57 C 410.323 1240.75 406.808 1238.48 404.761 1234.43 C 403.065 1231.02 402.807 1227.08 404.046 1223.48 C 409.514 1207.81 444.781 1215.38 456.599 1219.49 C 479.377 1227.41 496.136 1242.45 506.723 1264.06 C 567.356 1262.55 614.931 1241.03 661.863 1204.28 z" fill="url(#Gradient7)" transform="translate(0,0)"></path>
<path d="M 664.844 1003.19 C 668.728 999.271 673.479 996.468 677.756 993.011 C 706.34 969.906 732.278 941.134 755.34 912.723 C 761.522 942.461 768.279 970.859 777.676 999.807 C 760.707 1018.96 725.343 1056.8 702.847 1068.31 C 694.544 1074.9 679.321 1083.1 669.517 1087.97 C 615.664 1114.71 566.732 1122.84 507.623 1126.78 C 493.983 1157.26 466.374 1178.42 432.256 1179.29 C 422.002 1179.55 402.969 1180.35 403.503 1165.29 C 404.444 1147.34 425.688 1151.76 438.39 1148.94 C 446.96 1147.04 467.143 1133.47 467.562 1124.22 C 462.213 1120.41 457.777 1118.02 458.459 1110.74 C 459.068 1104.24 463.185 1104.29 466.308 1099.85 C 458.766 1091.15 455.38 1084.97 467.282 1078.01 L 468.267 1077.44 C 463.629 1074.39 460.076 1072.56 458.648 1067.14 C 459.091 1061.96 462.291 1058.87 465.837 1055.26 L 466.747 1054.35 C 450.545 1019.23 395.764 1038.97 404.017 1010.98 C 404.924 1007.95 407.032 1005.41 409.852 1003.97 C 419.877 998.761 445.165 1002.53 455.989 1006.18 C 478.249 1013.71 496.593 1029.79 506.966 1050.88 C 550.324 1048.83 591.392 1042.23 630.995 1022.92 C 643.275 1016.94 653.229 1010.1 664.844 1003.19 z" fill="url(#Gradient6)" transform="translate(0,0)"></path>
<path d="M 664.844 1003.19 C 668.728 999.271 673.479 996.468 677.756 993.011 C 706.34 969.906 732.278 941.134 755.34 912.723 C 761.522 942.461 768.279 970.859 777.676 999.807 C 760.707 1018.96 725.343 1056.8 702.847 1068.31 C 695.972 1067.84 687.785 1077.7 679.655 1080.28 C 670.28 1077.85 649.601 1029.57 649.172 1019.65 C 648.818 1011.45 660.791 1011.11 664.844 1003.19 z" fill="rgb(245,108,105)" transform="translate(0,0)"></path>
<path d="M 1293.54 914.476 C 1297.7 917.166 1326.71 950.251 1332.55 956.178 C 1398.43 1023.09 1447.88 1045.56 1539.39 1052.22 C 1541.45 1048.39 1543.71 1044.67 1546.15 1041.06 C 1563.57 1015.58 1592.73 1001.14 1623.38 1001.2 C 1633.05 1001.22 1643.94 1002.83 1645.16 1014.52 C 1647.03 1032.46 1624.57 1030 1613.04 1031.41 C 1598.59 1033.18 1588.96 1044.1 1580.33 1054.93 C 1583.65 1057.07 1587.71 1059.98 1588.34 1063.9 C 1590.51 1077.43 1581.53 1072.39 1578.49 1078.02 C 1589.11 1085.17 1591.74 1090.02 1580.71 1099.04 L 1579.64 1099.9 C 1579.53 1103.05 1588.8 1104.99 1588.64 1110.95 C 1588.46 1117.38 1584.12 1121.85 1579.49 1124.55 C 1602.52 1158.72 1635.51 1145.21 1643.79 1156.34 C 1645.94 1159.22 1647.81 1164.14 1646.94 1167.77 C 1646.01 1171.68 1643.61 1174.13 1640.18 1176.04 C 1628.33 1182.62 1608.81 1179.93 1596.34 1176 C 1569.58 1167.58 1552.63 1151.25 1539.83 1126.9 C 1422.56 1121.42 1352.31 1084.07 1270.67 1001.76 C 1282.63 968.576 1286.94 949.102 1293.54 914.476 z" fill="rgb(168,14,181)" transform="translate(0,0)"></path>
<path d="M 467.493 629.63 C 459.933 620.532 447.201 607.328 432.944 606.735 C 419.972 606.196 387.976 600.06 411.258 579.113 C 416.597 574.309 446.128 578.784 455.235 581.571 C 480.316 589.246 496.053 606.309 507.909 629.223 C 546.06 631.644 572.184 636.043 608.806 645.436 C 629.103 651.617 683.032 669.818 699.075 682.381 C 717.454 689.427 762.9 721.006 783.042 732.629 C 765.515 757.241 754.324 778.645 749.67 809.07 C 733.934 795.241 717.355 782.404 700.026 770.633 C 692.712 765.725 676.1 755.997 670.382 751.509 C 637.494 733.438 621.402 727.067 585.264 715.847 C 555.068 709.357 539.071 705.81 507.707 703.64 C 505.964 707.237 504.034 710.74 501.926 714.135 C 490.404 732.834 469.821 748.619 448.129 753.164 C 436.979 755.5 404.913 760.815 403.573 743.01 C 402.273 725.753 421.536 726.461 433.51 725.666 C 448.519 724.67 460.309 711.939 469.277 700.916 C 450.642 693.161 459.11 686.511 466.955 676.57 C 457.295 666.211 456.127 664.446 466.961 653.947 C 465.744 648.637 461.167 649.394 459.747 643.04 C 460.344 637.382 463.51 633.432 467.493 629.63 z" fill="url(#Gradient5)" transform="translate(0,0)"></path>
<path d="M 670.382 751.509 C 666.26 741.397 638.068 735.574 631.399 728.368 C 631.356 727.006 631.43 726.055 632.405 725.062 C 640.541 716.776 641.589 667.129 646.769 662.387 C 659.744 660.392 687.55 682.28 699.075 682.381 C 717.454 689.427 762.9 721.006 783.042 732.629 C 765.515 757.241 754.324 778.645 749.67 809.07 C 733.934 795.241 717.355 782.404 700.026 770.633 C 692.712 765.725 676.1 755.997 670.382 751.509 z" fill="rgb(246,58,108)" transform="translate(0,0)"></path>
<path d="M 467.906 841.338 C 461.099 832.467 451.082 821.44 439.59 818.219 C 427.501 815.173 400.349 818.288 405.01 797.944 C 408.698 781.842 445.333 789.041 456.154 792.535 C 480.24 800.314 496.676 816.883 507.653 838.983 C 557.083 842.656 578.927 842.252 628.359 837.793 L 749.091 813.309 C 745.892 841.527 748.666 864.653 752.38 892.345 C 719.931 900.603 662.765 914.75 629.534 915.079 C 601.717 920.145 537.096 916.295 507.919 914.736 C 492.533 945.93 466.042 965.46 430.328 966.826 C 420.541 967.2 394.541 963.201 404.707 945.425 C 409.204 937.563 423.08 937.452 431.568 936.987 C 448.339 936.07 459.22 924.24 469.456 912.134 C 448.323 903.244 464.762 894.304 467.065 887.386 C 458.151 879.09 456.626 876.549 465.543 867.034 L 466.55 865.975 L 466.235 863.997 C 457.705 854.404 457.105 850.658 467.906 841.338 z" fill="url(#Gradient4)" transform="translate(0,0)"></path>
<path d="M 628.359 837.793 L 749.091 813.309 C 745.892 841.527 748.666 864.653 752.38 892.345 C 719.931 900.603 662.765 914.75 629.534 915.079 C 613.086 912.968 597.868 916.811 584.097 915.373 C 580.404 910.807 584.329 871.501 583.279 862.957 C 582.522 856.794 581.199 849.123 580.331 843.024 C 590.771 843.407 620.299 842.55 628.359 837.793 z" fill="rgb(245,108,105)" transform="translate(0,0)"></path>
<path d="M 1613.25 788.378 C 1622.26 787.366 1644.12 786.197 1645.85 798.979 C 1648.58 819.092 1623.29 816.016 1610.58 818.293 C 1596.73 820.775 1587.7 830.671 1579.93 841.68 C 1584.27 844.813 1589.46 849.382 1588.89 855.61 C 1588.47 860.127 1582.97 862.003 1580.35 865.555 L 1582.73 868.361 C 1589.86 876.621 1589.21 879.775 1581.07 886.667 L 1579.99 887.567 C 1580.6 892.026 1599.21 902.535 1578.17 912.211 C 1579.26 913.618 1580.38 915.009 1581.51 916.384 C 1589.96 926.522 1606.8 937.571 1620.49 937.401 C 1631.84 937.259 1647.96 937.167 1645.81 955.559 C 1644.55 966.332 1629.97 966.204 1621.13 966.259 C 1581.91 966.503 1557.55 948.404 1539.22 914.918 C 1504.69 915.612 1479.03 917.93 1442.8 917.15 C 1386.56 914.901 1350.14 906.398 1296.7 892.147 C 1299.84 866.571 1302.96 837.742 1299.65 812.31 C 1349.8 827.68 1411.89 839.428 1464.4 841.418 C 1489.14 842.356 1514.72 840.956 1539.51 839.892 C 1553.84 809.294 1579.92 791.725 1613.25 788.378 z" fill="url(#Gradient3)" transform="translate(0,0)"></path>
<path d="M 1549.36 613.763 C 1549.72 613.946 1550.9 614.706 1551.36 614.468 C 1553.03 613.606 1552.96 610.602 1555.04 610.153 C 1557.23 609.744 1557.37 610.999 1558.43 612.145 C 1560.72 614.628 1562.08 614.746 1563.6 618.054 C 1564.31 619.609 1566.21 619.828 1566.16 622.635 C 1566.14 624.099 1568.36 626.865 1569.7 627.322 C 1572.9 628.784 1574.77 627.803 1574.97 631.972 C 1575.24 633.772 1576.01 635.103 1578.02 634.085 C 1578.69 633.748 1580.36 635.362 1580.94 635.565 C 1582.56 636.142 1582.14 640.056 1584.14 638.886 C 1584.98 638.394 1585.65 636.255 1586.01 635.445 C 1590.1 643.61 1588.95 647.396 1581.58 652.304 L 1580.5 653.006 L 1580.32 654.282 C 1596.21 671.507 1583.89 667.945 1579.65 677.003 C 1587.82 685.487 1595.73 690.39 1580.88 700.585 L 1579.77 701.338 C 1587.66 717.53 1608.28 726.843 1625.47 726.515 C 1643.66 726.168 1655.47 742.04 1639.51 753.528 C 1631.77 759.097 1605.13 755.677 1596.06 752.769 C 1570.41 745.294 1553.03 728.855 1540.2 705.507 C 1526.47 705.235 1506.18 707.815 1492.37 709.886 C 1415.72 721.383 1355.36 753.576 1298.63 805.729 C 1292.83 777.652 1282.52 754.014 1264.62 731.667 C 1287.6 716.87 1310.15 700.756 1333.75 687.154 C 1396.81 651.137 1467.71 631.072 1540.29 628.703 C 1542.77 623.559 1545.51 617.938 1549.36 613.763 z" fill="url(#Gradient2)" transform="translate(0,0)"></path>
<path d="M 1580.38 643.746 C 1581.12 643.216 1581.51 642.732 1582.32 642.603 C 1582.83 643.202 1581.81 644.27 1581.44 644.817 C 1581.01 645.557 1580.91 645.988 1580.42 646.144 C 1580.03 645.614 1580.32 644.251 1580.38 643.746 z" fill="rgb(151,95,188)" transform="translate(0,0)"></path>
<path d="M 1294.19 1214.5 C 1307.63 1206.7 1326.04 1218.43 1339.91 1217.25 C 1353.78 1216.14 1364.53 1205.34 1378.24 1203.86 C 1385.34 1203.1 1383.85 1207.53 1391.05 1208.58 L 1392.28 1209.31 C 1400.15 1214.05 1410.2 1223.73 1418.68 1228.89 C 1455.6 1251.37 1496.31 1262.81 1539.24 1264.94 C 1552.2 1240.94 1569.98 1225.99 1596.26 1217.98 C 1607.12 1214.68 1628.03 1211.65 1638.7 1216.5 C 1645.11 1219.4 1647.41 1232.75 1641.98 1237.7 C 1632.36 1246.47 1613.5 1241.46 1602.09 1247.79 C 1593.01 1252.86 1586.43 1259.59 1580.52 1267.38 C 1591.26 1276.68 1591.01 1282.45 1580.26 1290.76 C 1580.59 1295.71 1587.33 1296.31 1587.01 1303.82 C 1586.67 1311.72 1581.32 1309.18 1579.8 1315.13 L 1580.87 1316.01 C 1592.02 1325.29 1589.5 1330.31 1579.48 1338.57 C 1584.88 1351.26 1592.28 1354.28 1604.29 1360.77 C 1615.84 1367.02 1640.07 1362.15 1646.19 1375.61 C 1649.18 1382.19 1642.57 1393.73 1635.3 1393.45 C 1593.15 1399.18 1555.6 1378.69 1538.85 1339.53 C 1435.91 1330.95 1369.45 1303.65 1300.87 1222.62 C 1298.61 1219.95 1296.38 1217.24 1294.19 1214.5 z" fill="url(#Gradient1)" transform="translate(0,0)"></path>
<path d="M 321.367 791.516 C 368.274 784.982 411.622 817.642 418.278 864.533 C 424.934 911.423 392.388 954.856 345.515 961.635 C 298.469 968.438 254.84 935.745 248.159 888.681 C 241.478 841.617 274.285 798.073 321.367 791.516 z" fill="rgb(247,67,27)" transform="translate(0,0)"></path>
<path d="M 331.245 845.67 C 348.015 844.46 362.646 856.95 364.081 873.703 C 365.517 890.455 353.224 905.252 336.492 906.912 C 325.467 908.005 314.707 903.081 308.328 894.023 C 301.949 884.964 300.939 873.174 305.684 863.162 C 310.429 853.151 320.195 846.468 331.245 845.67 z" fill="rgb(255,255,255)" transform="translate(0,0)"></path>
<path d="M 328.251 1006.14 C 375.663 1003.53 416.203 1039.87 418.765 1087.29 C 421.326 1134.7 384.939 1175.2 337.522 1177.72 C 290.176 1180.22 249.749 1143.9 247.191 1096.56 C 244.633 1049.22 280.911 1008.75 328.251 1006.14 z" fill="rgb(247,67,27)" transform="translate(0,0)"></path>
<path d="M 328.966 1061.55 C 345.654 1059.1 361.199 1070.56 363.805 1087.22 C 366.411 1103.89 355.104 1119.54 338.465 1122.3 C 321.603 1125.1 305.695 1113.61 303.054 1096.72 C 300.414 1079.83 312.055 1064.03 328.966 1061.55 z" fill="rgb(255,255,255)" transform="translate(0,0)"></path>
<path d="M 322.48 580.232 C 369.58 574.543 412.371 608.123 418.045 655.225 C 423.718 702.327 390.126 745.107 343.022 750.766 C 295.939 756.422 253.182 722.848 247.511 675.767 C 241.84 628.685 275.401 585.918 322.48 580.232 z" fill="rgb(247,67,27)" transform="translate(0,0)"></path>
<path d="M 327.933 634.639 C 344.699 631.717 360.655 642.95 363.56 659.718 C 366.464 676.487 355.215 692.432 338.443 695.319 C 321.696 698.201 305.78 686.972 302.88 670.228 C 299.98 653.484 311.192 637.556 327.933 634.639 z" fill="rgb(255,255,255)" transform="translate(0,0)"></path>
<path d="M 1702.67 791.346 C 1749.72 785.617 1792.5 819.1 1798.25 866.142 C 1804 913.184 1770.53 955.983 1723.49 961.749 C 1676.43 967.518 1633.6 934.029 1627.85 886.961 C 1622.1 839.892 1655.6 797.078 1702.67 791.346 z" fill="rgb(247,67,27)" transform="translate(0,0)"></path>
<path d="M 1710.13 845.723 C 1726.82 843.876 1741.88 855.813 1743.89 872.48 C 1745.9 889.148 1734.12 904.326 1717.47 906.503 C 1700.59 908.711 1685.15 896.721 1683.11 879.819 C 1681.07 862.917 1693.21 847.597 1710.13 845.723 z" fill="rgb(255,255,255)" transform="translate(0,0)"></path>
<path d="M 331.206 1218.87 C 378.471 1217.86 417.654 1255.27 418.84 1302.53 C 420.026 1349.79 382.769 1389.11 335.513 1390.47 C 288.007 1391.84 248.434 1354.34 247.241 1306.83 C 246.049 1259.32 283.691 1219.89 331.206 1218.87 z" fill="rgb(247,67,27)" transform="translate(0,0)"></path>
<path d="M 325.091 1274.69 C 341.449 1270.15 358.392 1279.74 362.916 1296.1 C 367.439 1312.47 357.827 1329.4 341.456 1333.9 C 325.118 1338.39 308.228 1328.8 303.713 1312.47 C 299.199 1296.13 308.765 1279.23 325.091 1274.69 z" fill="rgb(255,255,255)" transform="translate(0,0)"></path>
<path d="M 1703.18 580.368 C 1750.37 574.806 1793.08 608.669 1798.42 655.878 C 1803.77 703.087 1769.71 745.642 1722.47 750.769 C 1675.55 755.862 1633.33 722.071 1628.02 675.169 C 1622.71 628.267 1656.3 585.894 1703.18 580.368 z" fill="rgb(247,67,27)" transform="translate(0,0)"></path>
<path d="M 1709.7 634.46 C 1720.7 633.029 1731.62 637.648 1738.25 646.542 C 1744.88 655.435 1746.19 667.216 1741.68 677.352 C 1737.17 687.487 1727.54 694.399 1716.5 695.426 C 1699.85 696.975 1685.02 684.901 1683.17 668.28 C 1681.32 651.66 1693.12 636.617 1709.7 634.46 z" fill="rgb(255,255,255)" transform="translate(0,0)"></path>
<path d="M 1708.72 1006.43 C 1756.03 1003.96 1796.38 1040.34 1798.8 1087.65 C 1801.23 1134.96 1764.81 1175.27 1717.5 1177.65 C 1670.25 1180.03 1630.01 1143.67 1627.58 1096.43 C 1625.16 1049.18 1661.48 1008.9 1708.72 1006.43 z" fill="rgb(247,67,27)" transform="translate(0,0)"></path>
<path d="M 1708.14 1061.75 C 1718.99 1059.77 1730.07 1063.77 1737.14 1072.22 C 1744.22 1080.68 1746.21 1092.29 1742.34 1102.62 C 1738.47 1112.95 1729.35 1120.4 1718.46 1122.13 C 1701.89 1124.76 1686.29 1113.57 1683.47 1097.04 C 1680.64 1080.51 1691.64 1064.78 1708.14 1061.75 z" fill="rgb(255,255,255)" transform="translate(0,0)"></path>
<path d="M 321.243 367.987 C 368.041 361.59 411.189 394.273 417.707 441.054 C 424.224 487.836 391.653 531.068 344.889 537.706 C 297.953 544.369 254.528 511.653 247.987 464.7 C 241.445 417.747 274.274 374.407 321.243 367.987 z" fill="rgb(247,67,27)" transform="translate(0,0)"></path>
<path d="M 331.15 421.637 C 347.929 420.407 362.583 432.885 364.043 449.646 C 365.503 466.406 353.228 481.23 336.489 482.921 C 325.455 484.035 314.675 479.124 308.275 470.066 C 301.876 461.008 300.847 449.206 305.584 439.178 C 310.321 429.149 320.089 422.447 331.15 421.637 z" fill="rgb(255,255,255)" transform="translate(0,0)"></path>
<path d="M 1707.37 1219.39 C 1754.41 1216.22 1795.16 1251.69 1798.5 1298.72 C 1801.84 1345.75 1766.53 1386.63 1719.51 1390.16 C 1672.24 1393.7 1631.09 1358.15 1627.73 1310.86 C 1624.37 1263.58 1660.07 1222.57 1707.37 1219.39 z" fill="rgb(247,67,27)" transform="translate(0,0)"></path>
<path d="M 1709.46 1273.81 C 1726.14 1271.55 1741.54 1283.12 1744 1299.77 C 1746.47 1316.43 1735.09 1331.97 1718.47 1334.64 C 1707.53 1336.4 1696.5 1332.14 1689.58 1323.49 C 1682.66 1314.84 1680.92 1303.14 1685.04 1292.86 C 1689.15 1282.57 1698.48 1275.3 1709.46 1273.81 z" fill="rgb(255,255,255)" transform="translate(0,0)"></path>
<path d="M 1702.47 368.144 C 1749.37 362.286 1792.14 395.588 1797.95 442.499 C 1803.76 489.411 1770.42 532.143 1723.51 537.913 C 1676.65 543.675 1633.99 510.387 1628.18 463.537 C 1622.38 416.688 1655.62 373.993 1702.47 368.144 z" fill="rgb(247,67,27)" transform="translate(0,0)"></path>
<path d="M 1705.39 422.725 C 1721.77 418.205 1738.7 427.866 1743.15 444.266 C 1747.59 460.667 1737.85 477.555 1721.43 481.923 C 1705.12 486.263 1688.36 476.602 1683.95 460.308 C 1679.53 444.014 1689.12 427.216 1705.39 422.725 z" fill="rgb(255,255,255)" transform="translate(0,0)"></path>
<path d="M 1390.5 1630.39 C 1403.11 1630.65 1416.93 1633.57 1426.65 1641.72 C 1457 1666.99 1459.99 1723.08 1434.64 1752.78 C 1411.33 1780.08 1378.28 1780.37 1351.96 1757.97 L 1351.88 1798.18 L 1352.01 1830.1 L 1318.39 1830.15 L 1318.48 1634.78 L 1351.76 1634.79 L 1351.94 1648.23 C 1364.18 1634.28 1372.83 1631.89 1390.5 1630.39 z" fill="rgb(3,2,2)" transform="translate(0,0)"></path>
<path d="M 1378.31 1661.23 C 1383.28 1661.14 1391.61 1661.16 1396.02 1663.51 C 1428.27 1680.64 1424.04 1729.81 1390.17 1742.36 C 1341.43 1747.7 1335.68 1670.6 1378.31 1661.23 z" fill="rgb(255,255,255)" transform="translate(0,0)"></path>
<path d="M 1533.89 1632.09 C 1572.69 1626.19 1608.87 1652.99 1614.55 1691.81 C 1620.23 1730.64 1593.24 1766.68 1554.38 1772.14 C 1515.83 1777.56 1480.14 1750.82 1474.5 1712.3 C 1468.87 1673.78 1495.4 1637.94 1533.89 1632.09 z" fill="rgb(3,2,2)" transform="translate(0,0)"></path>
<path d="M 1536.2 1662.21 C 1543.96 1661.46 1549.45 1661.1 1557.01 1663.68 C 1578.73 1671.12 1582.42 1703.21 1574.62 1721.78 C 1570.98 1730.59 1563.89 1737.52 1555 1740.95 C 1553.92 1741.37 1552.75 1741.77 1551.65 1742.18 C 1513.84 1746.11 1502.64 1708.24 1515.41 1678.34 C 1518.95 1670.03 1527.86 1664.91 1536.2 1662.21 z" fill="rgb(255,255,255)" transform="translate(0,0)"></path>
<path d="M 1207.44 1632.14 C 1246.06 1626.31 1282.08 1652.92 1287.85 1691.55 C 1293.63 1730.17 1266.96 1766.15 1228.33 1771.87 C 1189.78 1777.58 1153.88 1750.98 1148.12 1712.43 C 1142.36 1673.89 1168.9 1637.96 1207.44 1632.14 z" fill="rgb(3,2,2)" transform="translate(0,0)"></path>
<path d="M 1213.1 1661.32 C 1230.97 1661.17 1246.56 1668.95 1249.97 1687.5 C 1254.5 1712.19 1249.04 1737.83 1221.44 1742.84 C 1212.84 1742.78 1206.12 1741.9 1199.03 1736.49 C 1191.32 1730.7 1186.27 1722.06 1185 1712.51 C 1182.11 1689.29 1186.81 1666.59 1213.1 1661.32 z" fill="rgb(255,255,255)" transform="translate(0,0)"></path>
<path d="M 1263.93 1021.89 C 1288.65 1072.88 1323.01 1132.83 1359.26 1176.33 C 1368.04 1186.85 1380.96 1198.9 1391.05 1208.58 C 1383.85 1207.53 1385.34 1203.1 1378.24 1203.86 C 1364.53 1205.34 1353.78 1216.14 1339.91 1217.25 C 1326.04 1218.43 1307.63 1206.7 1294.19 1214.5 C 1267.74 1181.15 1244.96 1143.17 1223.02 1106.76 C 1247.21 1072.41 1249.33 1058.34 1263.93 1021.89 z" fill="rgb(14,5,239)" transform="translate(0,0)"></path>
<path d="M 489.143 1565.14 L 522.879 1565.17 L 523.028 1651.08 C 532.844 1638.66 542.422 1630.72 558.968 1630.42 C 612.357 1629.46 606.409 1682.71 606.331 1718.81 L 606.191 1769.2 L 573.071 1769.39 L 573.042 1712.97 C 573.157 1694.95 576.715 1661.8 550.453 1661.75 C 542.783 1661.78 535.453 1664.93 530.155 1670.47 C 527.18 1673.6 525.076 1677.45 524.051 1681.64 C 520.717 1695.1 522.124 1752.07 522.207 1769.47 L 488.929 1769.45 L 489.143 1565.14 z" fill="rgb(3,2,2)" transform="translate(0,0)"></path>
<path d="M 793.853 1631.28 C 796.598 1631.05 799.347 1630.87 802.098 1630.73 C 860.263 1628 862.899 1670.59 861.658 1714.5 C 861.159 1732.15 861.761 1751.62 861.798 1769.4 C 851.437 1769.28 841.075 1769.37 830.718 1769.67 L 830.549 1755.91 C 810.602 1779.84 772.22 1779.99 751.233 1757.09 C 741.392 1742.05 740.575 1721.93 750.608 1707.52 C 766.689 1684.44 801.801 1685.83 826.65 1683.75 C 829.188 1683.54 829.324 1682.59 830.361 1680.76 C 829.649 1649.24 789.342 1654.82 771.659 1673.23 L 751.698 1653.57 C 763.232 1640.33 777.039 1634.43 793.853 1631.28 z" fill="rgb(3,2,2)" transform="translate(0,0)"></path>
<path d="M 820.262 1709.42 C 823.81 1709.15 827.025 1709.09 830.569 1709.02 C 830.408 1731.92 820.995 1751.24 794.474 1747.33 L 791.376 1746.85 C 778.751 1742.29 772.883 1731.31 782.318 1719.61 C 789.72 1710.43 809.002 1710.23 820.262 1709.42 z" fill="rgb(255,255,255)" transform="translate(0,0)"></path>
<path d="M 982.957 1634.35 L 1016.88 1634.28 L 1016.89 1769.68 L 983.188 1769.56 L 983.025 1751.62 C 967.133 1774.82 936.826 1782.14 913.763 1763.29 C 900.376 1752.35 899.343 1733.8 898.329 1717.63 C 898.079 1690.03 897.983 1662.42 898.039 1634.81 L 931.476 1634.69 L 931.381 1688.38 C 931.373 1705.35 927.233 1740.84 953.34 1741.25 C 960.208 1741.36 968.118 1738.82 973.166 1733.83 C 985.186 1721.96 982.817 1703.32 983.043 1687.92 C 983.004 1670.04 982.864 1652.22 982.957 1634.35 z" fill="rgb(3,2,2)" transform="translate(0,0)"></path>
<path d="M 406.2 1630.41 C 407.649 1630.43 409.097 1630.48 410.544 1630.55 C 430.966 1631.65 442.544 1637.05 456.098 1652.37 C 447.624 1659.09 439.28 1665.98 431.07 1673.03 C 422.17 1662.42 403.496 1652.03 390.606 1664.58 C 377.113 1677.72 403.316 1686.57 413.629 1688.32 C 434.272 1692.61 457.071 1702.12 458.422 1726.18 C 460.463 1762.53 429.834 1772.81 399.02 1773.83 C 376.95 1771.71 364.309 1767.89 348.211 1752.26 C 356.046 1746.25 366.347 1736.2 374.234 1729.39 C 375.818 1731.14 377.35 1732.74 379.116 1734.32 C 387.607 1741.92 398.891 1745.62 410.232 1744.51 C 416.93 1743.92 426.288 1741.68 424.505 1732.72 C 421.864 1719.45 407.319 1717.48 396.422 1714.7 C 385.716 1711.96 375.153 1709.52 366.304 1702.48 C 349.682 1689.94 352.477 1662.01 365.165 1647.52 C 376.204 1634.91 390.117 1631.75 406.2 1630.41 z" fill="rgb(3,2,2)" transform="translate(0,0)"></path>
<path d="M 277.621 1630.41 C 300.551 1631.06 311.386 1635.89 327.176 1652.43 C 318.691 1659.3 309.84 1666.22 301.803 1673.57 C 295.428 1664.9 292.001 1662.15 280.988 1659.95 C 274.285 1658.62 257.385 1661.24 258.043 1670.43 C 259.79 1686.42 285.458 1688.15 299.682 1692.64 C 330.526 1702.39 340.369 1731.89 319.05 1757.48 C 309.345 1769.13 285.853 1773.52 269.814 1773.9 C 248.346 1771.65 235.831 1767.53 220.078 1752.51 L 245.537 1729.16 C 255.359 1740.15 273.128 1750.39 288.282 1742.91 C 305.586 1734.37 290.698 1720.72 278.06 1717.36 C 264.748 1713.82 247.921 1710.97 236.935 1702 C 216.832 1683.93 225.805 1648.09 249.331 1637.07 C 259.996 1632.07 266.55 1631.24 277.621 1630.41 z" fill="rgb(3,2,2)" transform="translate(0,0)"></path>
<path d="M 1776.5 1593.49 L 1792.21 1593.46 C 1792.23 1607.26 1792.35 1621.06 1792.57 1634.86 L 1827.07 1634.69 L 1827.09 1663.51 L 1792.29 1663.88 C 1792.37 1678.86 1792.06 1693.82 1791.93 1708.8 C 1791.84 1719.17 1791.03 1732.27 1800.59 1739.07 C 1808.62 1744.78 1817.94 1742.83 1826.95 1741.55 C 1826.98 1749.47 1828.04 1760.14 1826.5 1768.01 C 1826.19 1769.58 1825.35 1769.47 1823.46 1770.43 C 1806.8 1775 1784.84 1776.6 1771.34 1763.5 C 1761.35 1753.81 1759.41 1738.76 1759.37 1725.46 C 1759.31 1704.74 1759.34 1683.98 1759.38 1663.24 L 1736.36 1663.31 L 1736.25 1634.6 L 1759.77 1634.11 L 1759.75 1593.72 L 1776.5 1593.49 z" fill="rgb(3,2,2)" transform="translate(0,0)"></path>
<path d="M 1063.86 1593.83 L 1096.7 1593.81 L 1096.77 1634.72 L 1131.08 1634.75 L 1131.08 1663.34 C 1119.63 1663.34 1108.04 1663.57 1096.57 1663.72 C 1096.68 1682.65 1095.61 1701.85 1096.29 1720.71 C 1097.14 1743.92 1113.79 1743.74 1131.26 1741.13 L 1131.18 1761.58 C 1131.34 1764.64 1131.7 1765.79 1130.18 1768.46 C 1113.04 1781.08 1069.83 1771.7 1066.17 1749.36 C 1061.83 1722.79 1063.73 1690.99 1063.81 1663.58 C 1056.47 1663.23 1047.83 1663.4 1040.38 1663.35 L 1040.39 1634.73 L 1063.86 1634.9 L 1063.86 1593.83 z" fill="rgb(3,2,2)" transform="translate(0,0)"></path>
<path d="M 1708.77 1631.19 C 1715.93 1630.56 1720.39 1630.97 1727.29 1632.33 L 1727.51 1664.91 C 1722.72 1664.27 1717.53 1663.36 1712.78 1663.32 C 1672.99 1662.92 1677.76 1704.07 1678.05 1731.24 C 1678.2 1745.01 1678.18 1756.99 1678.24 1769.65 L 1646.24 1769.51 L 1644.69 1768.84 C 1643.53 1766.11 1644.07 1647.01 1644.06 1634.51 C 1655.28 1634.74 1666.7 1634.73 1677.94 1634.83 L 1677.98 1654.66 C 1686.37 1640.7 1692.71 1634.84 1708.77 1631.19 z" fill="rgb(3,2,2)" transform="translate(0,0)"></path>
<path d="M 818.866 409.147 C 820.087 411.083 818.094 419.113 817.58 421.671 C 808.096 468.852 809.63 510.112 815.524 557.469 C 803.549 553.206 796.535 548.599 786.972 540.555 C 777.031 531.008 770.274 521.173 766.15 507.882 C 759.927 487.621 762.02 465.716 771.966 446.999 C 782.02 428.198 798.625 415.333 818.866 409.147 z" fill="rgb(247,67,27)" transform="translate(0,0)"></path>
<path d="M 1228.23 409.147 C 1238.6 411.7 1248.83 417.378 1256.95 424.257 C 1272.73 437.589 1282.46 456.73 1283.93 477.339 C 1285.67 502.051 1278.05 520.19 1262.06 538.351 C 1251.93 547.695 1245.5 551.667 1232.72 556.55 C 1243 508.594 1237.53 456.747 1228.23 409.147 z" fill="rgb(247,67,27)" transform="translate(0,0)"></path>
<path d="M 1549.36 613.763 C 1560.75 597.296 1583.22 583.606 1603 580.004 L 1604.49 579.748 C 1612.48 578.294 1634.04 575.459 1639.91 580.519 C 1652.91 591.735 1646.01 600.721 1634.79 606.527 C 1615.99 605.888 1602.82 607.549 1588.39 621.95 C 1579.41 630.918 1579.59 627.78 1586.01 635.445 C 1585.65 636.255 1584.98 638.394 1584.14 638.886 C 1582.14 640.056 1582.56 636.142 1580.94 635.565 C 1580.36 635.362 1578.69 633.748 1578.02 634.085 C 1576.01 635.103 1575.24 633.772 1574.97 631.972 C 1574.77 627.803 1572.9 628.784 1569.7 627.322 C 1568.36 626.865 1566.14 624.099 1566.16 622.635 C 1566.21 619.828 1564.31 619.609 1563.6 618.054 C 1562.08 614.746 1560.72 614.628 1558.43 612.145 C 1557.37 610.999 1557.23 609.744 1555.04 610.153 C 1552.96 610.602 1553.03 613.606 1551.36 614.468 C 1550.9 614.706 1549.72 613.946 1549.36 613.763 z" fill="rgb(151,95,188)" transform="translate(0,0)"></path>
<path d="M 638.647 1684.83 C 666.736 1684.69 694.826 1684.72 722.915 1684.9 L 723.033 1713.57 L 638.624 1713.68 C 638.584 1704.06 638.591 1694.45 638.647 1684.83 z" fill="rgb(3,2,2)" transform="translate(0,0)"></path>
<metadata><recraft-signature>{"signed_by": "recraft", "signature_b64": "chDS7sJ5lLRbLZkB+IC/SUpA9I5v+tHzw+a6U0V3UWMAFNP51sx/Nbu/gXyVHipxYtyVNuFBglhvKPt7g1v7AA==", "signing_algo": "Ed25519", "generation_timestamp": 1781143007, "identifier": "c7e91216-5acd-43d7-a127-23deefba53c9"}</recraft-signature></metadata></svg>